<svg width="155" height="40" viewBox="0 0 155 40" fill="none" xmlns="http://www.w3.org/2000/svg">
<g clip-path="url(#clip0_689_4393)">
<path d="M22.8673 1.33333C18.7667 1.93711 14.6409 5.00629 12.7038 8.98113C11.7478 10.9182 11.7227 11.1698 11.7227 14.6918C11.7227 18.2138 11.7478 18.4654 12.7038 20.478C15.295 25.8868 21.4082 29.1572 27.144 28.1761C34.5403 26.9182 39.5466 20.0252 38.4396 12.7044C37.2572 5.25786 30.4396 0.27673 22.8673 1.33333Z" fill="#DFF6FC"/>
<path d="M22.0125 0.334592C20.1508 0.737107 17.2074 2.0956 17.0062 2.64906C16.9056 2.87547 17.0062 3.22767 17.2074 3.45409C17.5596 3.78113 17.8112 3.70566 19.5722 2.90063C24.7798 0.435221 30.4402 1.41635 34.5408 5.51698C37.3584 8.33459 38.6917 11.8566 38.415 15.8063C38.0376 21.1145 34.5408 25.6176 29.4087 27.4038C27.0942 28.2088 23.3961 28.2088 21.0817 27.4289C15.5974 25.5421 12.0502 20.6868 11.9999 15.0516C11.9999 12.6365 12.2766 11.4038 13.3835 8.93836C14.0879 7.42893 14.1383 7.17736 13.7861 6.85031C13.2074 6.2717 12.7043 6.64906 11.8741 8.35975C11.0439 10.0704 10.3144 13.1145 10.3144 14.9006C10.3144 16.4101 10.9181 19.1522 11.5974 20.7874L12.1508 22.1207L6.36468 27.9572C0.125684 34.2214 -0.276831 34.8 0.100527 36.7874C0.301785 37.8189 1.25776 39.0516 2.28921 39.5799C3.1194 40.0327 4.83009 40.083 5.60996 39.6805C5.91185 39.5296 8.77977 36.7874 11.9999 33.5924L17.8364 27.8063L19.2955 28.4352C21.2074 29.2906 22.9936 29.6428 25.3584 29.6428C29.4339 29.6428 32.5785 28.2843 35.6225 25.2654C38.6917 22.1711 39.9999 19.0767 39.9999 14.8C39.9999 10.5987 38.6917 7.45409 35.7232 4.48553C33.5596 2.29686 31.6477 1.18994 28.7798 0.460378C26.5659 -0.118238 24.2263 -0.143396 22.0125 0.334592ZM14.7169 25.2906L16.3773 26.9509L15.2452 28.1082L14.0879 29.2654L12.4024 27.5799L10.7169 25.8692L11.8238 24.7371C12.4276 24.1082 12.9559 23.605 12.981 23.605C13.0062 23.605 13.7861 24.3597 14.7169 25.2906ZM9.00619 34.3472C5.15713 38.1711 5.00619 38.322 3.9999 38.322C2.66657 38.322 1.7609 37.366 1.7609 36.0075C1.7609 35.1522 2.06279 34.7748 5.71059 31.1019L9.66028 27.127L11.3207 28.7623L12.9559 30.3975L9.00619 34.3472Z" fill="black"/>
<path d="M23.5718 3.75597C20.2258 4.23396 16.8548 6.74968 15.2699 9.99497C14.49 11.5799 14.4648 11.7811 14.4648 14.6742C14.4648 17.5673 14.49 17.7685 15.2699 19.4038C17.3831 23.8314 22.3894 26.4981 27.0686 25.6931C33.1064 24.6616 37.207 19.0264 36.3013 13.039C35.3453 6.95094 29.7604 2.87547 23.5718 3.75597ZM29.1818 6.04528C33.0812 7.8566 35.3957 12.0579 34.7164 16.1585C34.49 17.6176 33.3579 20.3597 33.0057 20.3094C32.9051 20.3094 32.5026 19.8314 32.0749 19.2528C31.5969 18.5736 30.8422 17.9698 30.012 17.5673C28.9051 17.039 28.7038 16.8629 28.8548 16.4352C28.9554 16.1585 29.056 14.6742 29.1064 13.1648C29.207 10.5987 29.1567 10.322 28.6284 9.54214C27.6975 8.18365 26.817 7.65534 25.4837 7.65534C24.0246 7.6805 22.8674 8.23396 22.0875 9.31572C21.6095 10.0201 21.4837 10.5233 21.4334 12.561C21.3579 14.2969 21.4334 15.2025 21.7353 15.8818L22.1126 16.8126L21.056 17.2654C19.8988 17.7937 18.9177 18.6239 18.2384 19.6805C17.7856 20.3597 17.7604 20.3597 17.4082 19.9321C16.0246 18.0956 15.4963 14.6491 16.2258 12.1585C17.1315 9.03899 19.2699 6.82515 22.5152 5.61761C24.1252 5.03899 27.4711 5.24025 29.1818 6.04528ZM26.3894 9.64276C27.0435 9.96981 27.4208 10.473 27.4208 11.0516C27.4208 11.1522 27.1189 11.2025 26.7164 11.127C26.2384 11.0264 25.8611 11.1522 25.4334 11.5044C25.0812 11.8063 24.4774 12.0327 23.9743 12.0327C23.2447 12.0327 23.1441 11.9572 23.1441 11.3786C23.1441 10.5987 24.402 9.26541 25.1567 9.26541C25.4334 9.26541 26.012 9.44151 26.3894 9.64276ZM27.6724 14.1711C27.6724 15.7811 26.3391 16.9887 24.9303 16.6868C23.9994 16.4855 23.1441 15.5547 23.0686 14.6491C23.0183 13.9698 23.0938 13.9195 24.2258 13.7686C24.9051 13.6679 25.685 13.4163 25.9869 13.2151C26.4648 12.9132 26.6158 12.9132 27.0938 13.2151C27.4208 13.4415 27.6724 13.844 27.6724 14.1711ZM24.4523 19.9824C24.5277 21.7434 24.9051 22.3472 25.7604 22.0201C26.0875 21.8943 26.163 21.4918 26.163 20.0579V18.2465L27.446 18.3975C29.0057 18.5987 30.1378 19.2025 30.8674 20.3346C31.6724 21.4918 31.5969 21.9195 30.4648 22.6742C27.9491 24.3346 23.9994 24.6113 21.3579 23.278C19.3957 22.2968 19.0435 21.9698 19.2447 21.366C19.7227 19.8566 21.9114 18.3472 23.5718 18.322H24.3768L24.4523 19.9824Z" fill="black"/>
<path d="M14.919 4.15849C14.4662 4.33459 14.5165 5.46667 14.9693 5.64277C15.4222 5.81887 16.1014 5.34088 16.1014 4.83773C16.1014 4.43522 15.3467 4.00755 14.919 4.15849Z" fill="black"/>
<path d="M24.4526 19.9748C24.5281 21.7358 24.9055 22.3396 25.7608 22.0126C26.0879 21.8868 26.1633 21.4843 26.1633 20.0503V18.239L27.4463 18.3899C29.0061 18.5912 30.1382 19.195 30.8677 20.327C31.6728 21.4843 31.5973 21.9119 30.4652 22.6667C27.9495 24.327 23.9998 24.6038 21.3583 23.2704C19.396 22.2893 19.0438 21.9623 19.2451 21.3585C19.7231 19.8491 21.9118 18.3396 23.5721 18.3145H24.3772L24.4526 19.9748Z" fill="#91DEF5"/>
<path d="M9.007 34.3396C5.15794 38.1635 5.007 38.3145 4.00071 38.3145C2.66738 38.3145 1.76172 37.3585 1.76172 36C1.76172 35.1447 2.06361 34.7673 5.7114 31.0943L9.66109 27.1195L11.3215 28.7547L12.9567 30.3899L9.007 34.3396Z" fill="#00CCF2"/>
<path d="M29.1823 6.03774C33.0817 7.84906 35.3962 12.0503 34.7169 16.1509C34.4905 17.6101 33.3584 20.3522 33.0062 20.3019C32.9056 20.3019 32.5031 19.8239 32.0754 19.2453C31.5974 18.566 30.8427 17.9623 30.0125 17.5597C28.9056 17.0314 28.7044 16.8553 28.8553 16.4277C28.9559 16.1509 29.0566 14.6667 29.1069 13.1572C29.2075 10.5912 29.1572 10.3145 28.6289 9.53459C27.6981 8.1761 26.8176 7.6478 25.4842 7.6478C24.0251 7.67296 22.8679 8.22642 22.088 9.30818C21.61 10.0126 21.4842 10.5157 21.4339 12.5535C21.3584 14.2893 21.4339 15.195 21.7358 15.8742L22.1132 16.805L21.0566 17.2579C19.8993 17.7862 18.9182 18.6164 18.2389 19.673C17.7861 20.3522 17.761 20.3522 17.4088 19.9245C16.0251 18.088 15.4968 14.6415 16.2264 12.1509C17.132 9.03145 19.2704 6.81761 22.5157 5.61006C24.1257 5.03145 27.4717 5.23271 29.1823 6.03774Z" fill="white"/>
<path d="M27.6736 14.1635C27.6736 15.7736 26.3402 16.9811 24.9314 16.6792C24.0006 16.478 23.1453 15.5472 23.0698 14.6415C23.0195 13.9623 23.095 13.912 24.227 13.761C24.9063 13.6604 25.6862 13.4088 25.988 13.2075C26.466 12.9057 26.617 12.9057 27.095 13.2075C27.422 13.434 27.6736 13.8365 27.6736 14.1635Z" fill="#FFDDCF"/>
<path d="M26.3898 9.63522C27.0439 9.96226 27.4213 10.4654 27.4213 11.044C27.4213 11.1447 27.1194 11.195 26.7169 11.1195C26.2389 11.0189 25.8615 11.1447 25.4338 11.4969C25.0816 11.7987 24.4779 12.0252 23.9747 12.0252C23.2452 12.0252 23.1445 11.9497 23.1445 11.3711C23.1445 10.5912 24.4024 9.25786 25.1571 9.25786C25.4338 9.25786 26.0125 9.43396 26.3898 9.63522Z" fill="#8690A6"/>
<path d="M14.7168 25.283L16.3772 26.9434L15.2451 28.1006L14.0879 29.2579L12.4023 27.5723L10.7168 25.8616L11.8237 24.7296C12.4275 24.1006 12.9558 23.5975 12.9809 23.5975C13.0061 23.5975 13.786 24.3522 14.7168 25.283Z" fill="white"/>
</g>
<path d="M63.3259 14.552C61.3419 14.552 59.8059 15.224 58.6859 16.6C57.7899 15.224 56.4139 14.552 54.5899 14.552C52.7019 14.552 51.2619 15.192 50.2699 16.504V15H44.9579V31H50.2699V22.264C50.2699 20.6 51.0379 19.576 52.4779 19.576C53.8219 19.576 54.4939 20.312 54.4939 21.816V31H59.8059V22.264C59.8059 20.6 60.5739 19.576 62.0139 19.576C63.3259 19.576 63.9979 20.312 63.9979 21.816V31H69.3419V21.208C69.3419 17.08 67.0379 14.552 63.3259 14.552Z" fill="#8690A6"/>
<path d="M82.0639 14.552C80.1119 14.552 78.6079 15.192 77.5199 16.472V8.6H72.2079V31H77.5199V29.528C78.6079 30.808 80.1119 31.448 82.0639 31.448C84.2079 31.448 85.9679 30.648 87.4079 29.048C88.8479 27.416 89.5839 25.4 89.5839 23C89.5839 20.6 88.8479 18.584 87.4079 16.984C85.9679 15.352 84.2079 14.552 82.0639 14.552ZM78.4479 25.528C77.8399 24.888 77.5199 24.056 77.5199 23C77.5199 21.944 77.8399 21.112 78.4479 20.472C79.0559 19.832 79.8879 19.512 80.8799 19.512C81.8719 19.512 82.7039 19.832 83.3119 20.472C83.9199 21.112 84.2399 21.944 84.2399 23C84.2399 24.056 83.9199 24.888 83.3119 25.528C82.7039 26.168 81.8719 26.488 80.8799 26.488C79.8879 26.488 79.0559 26.168 78.4479 25.528Z" fill="#00A5ED"/>
<path d="M101.815 15H98.4874V10.52L93.1754 12.12V15H90.7754V20.088H93.1754V24.856C93.1754 27.384 93.8154 29.144 95.0954 30.136C96.4074 31.096 98.6474 31.384 101.815 31V26.2C99.4154 26.328 98.4874 26.136 98.4874 24.728V20.088H101.815V15Z" fill="#00CCF2"/>
<path d="M109.225 12.92C110.441 11.736 110.441 9.976 109.225 8.856C108.073 7.768 106.217 7.768 105.001 8.856C103.849 9.976 103.849 11.736 105.001 12.92C106.217 14.008 108.073 14.008 109.225 12.92ZM109.801 31V15H104.489V31H109.801Z" fill="#91DEF5"/>
<path d="M115.968 31.448C117.792 31.448 119.296 29.944 119.296 28.12C119.296 26.296 117.792 24.792 115.968 24.792C114.144 24.792 112.608 26.296 112.608 28.12C112.608 29.944 114.08 31.448 115.968 31.448ZM127.192 24.184L124.216 15H118.328L124.312 31H130.072L136.056 15H130.168L127.192 24.184ZM147.343 14.552C145.327 14.552 143.855 15.224 142.895 16.6V15H137.583V31H142.895V22.488C142.895 20.6 143.855 19.576 145.519 19.576C146.959 19.576 147.919 20.44 147.919 22.104V31H153.231V21.432C153.231 16.984 150.799 14.552 147.343 14.552Z" fill="#505F79"/>
<defs>
<clipPath id="clip0_689_4393">
<rect width="40" height="39.9497" fill="white"/>
</clipPath>
</defs>
</svg>
